<svg xmlns="http://www.w3.org/2000/svg" width="51.282" height="50" viewBox="0 0 51.282 50">
  <path id="adobexd" d="M42.2.45H9.081A9.074,9.074,0,0,0,0,9.531V41.369A9.074,9.074,0,0,0,9.081,50.45H42.2a9.074,9.074,0,0,0,9.081-9.081V9.531A9.074,9.074,0,0,0,42.2.45Zm6.923,40.085a7.741,7.741,0,0,1-7.735,7.778H9.893a7.77,7.77,0,0,1-7.756-7.756V10.343A7.77,7.77,0,0,1,9.893,2.587H41.368a7.756,7.756,0,0,1,7.756,7.756ZM20.278,23.847l5.983,11.5c.107.171.043.342-.128.342H22.415a.419.419,0,0,1-.449-.278c-1.368-2.821-2.756-5.641-4.188-8.675h-.043c-1.282,2.863-2.692,5.876-4.06,8.7a.41.41,0,0,1-.385.235H9.765c-.214,0-.235-.171-.128-.3l5.855-11.154L9.829,12.929a.173.173,0,0,1,.128-.3h3.675a.337.337,0,0,1,.385.235c1.346,2.821,2.714,5.726,4,8.568h.043c1.239-2.821,2.607-5.748,3.932-8.547.107-.171.171-.278.385-.278h3.44c.171,0,.235.128.128.3Zm7.03,3.483c0-4.979,3.312-8.868,8.568-8.868a9.476,9.476,0,0,1,1.111.043V12.843a.214.214,0,0,1,.214-.214h3.376c.171,0,.214.064.214.171V32.416A15.219,15.219,0,0,0,40.9,34.51c0,.128-.043.171-.171.235a12.728,12.728,0,0,1-5.47,1.239C30.62,36.006,27.308,33.142,27.308,27.33Zm9.679-5.47a3.231,3.231,0,0,0-1.239-.214c-2.692,0-4.573,2.073-4.573,5.513,0,3.932,1.923,5.513,4.338,5.513a4.031,4.031,0,0,0,1.474-.235V21.86Z" transform="translate(0 -0.45)" fill="#aeb3ba"/>
</svg>
