<svg xmlns="http://www.w3.org/2000/svg" width="50" height="48.218" viewBox="0 0 50 48.218">
  <g id="user-favorite-alt" transform="translate(-2.25 -3.373)">
    <path id="Trazado_20" data-name="Trazado 20" d="M40.8,5.619a7.522,7.522,0,0,0-10.3-.4,7.522,7.522,0,0,0-10.3.4,7.713,7.713,0,0,0,0,10.792L30.5,26.84l0,0,0,0L40.8,16.411a7.713,7.713,0,0,0,0-10.792ZM38.254,13.9,30.5,21.756l0,0,0,0L22.746,13.9a4.121,4.121,0,0,1,0-5.775,4.043,4.043,0,0,1,5.635,0l2.11,2.156.01-.01.01.01,2.106-2.156a4.043,4.043,0,0,1,5.638,0,4.121,4.121,0,0,1,0,5.775Z" transform="translate(9.251 0)" fill="#191a1c"/>
    <path id="Trazado_21" data-name="Trazado 21" d="M27.251,40.358H23.679V31.429a5.362,5.362,0,0,0-5.357-5.357H11.179a5.362,5.362,0,0,0-5.357,5.357v8.929H2.25V31.429A8.94,8.94,0,0,1,11.179,22.5h7.143a8.94,8.94,0,0,1,8.929,8.929Z" transform="translate(0 11.234)" fill="#191a1c"/>
    <path id="Trazado_22" data-name="Trazado 22" d="M13.429,12.572a5.357,5.357,0,1,1-5.357,5.357,5.357,5.357,0,0,1,5.357-5.357m0-3.572a8.929,8.929,0,1,0,8.929,8.929A8.929,8.929,0,0,0,13.429,9Z" transform="translate(1.322 3.305)" fill="#191a1c"/>
  </g>
</svg>
