<svg xmlns="http://www.w3.org/2000/svg" width="38" height="38" viewBox="0 0 38 38">
  <g id="user-speaker" transform="translate(-1.75 -1.75)">
    <path id="Trazado_39" data-name="Trazado 39" d="M38.477,22.554,36.21,20.288a3.924,3.924,0,0,0,.4-1.7,3.964,3.964,0,1,0-3.964,3.964,3.924,3.924,0,0,0,1.7-.4l2.265,2.265V34.446H28.679V30.482a9.261,9.261,0,0,0-9.25-9.25H11.5a9.261,9.261,0,0,0-9.25,9.25v6.607h37V24.422A2.626,2.626,0,0,0,38.477,22.554ZM4.893,30.482A6.615,6.615,0,0,1,11.5,23.875h7.929a6.615,6.615,0,0,1,6.607,6.607v3.964H4.893Z" transform="translate(0 2.161)" fill="#09a7ff" stroke="#191a1c" stroke-width="1"/>
    <path id="Trazado_40" data-name="Trazado 40" d="M14.875,4.893A6.607,6.607,0,1,1,8.268,11.5a6.607,6.607,0,0,1,6.607-6.607m0-2.643a9.25,9.25,0,1,0,9.25,9.25A9.25,9.25,0,0,0,14.875,2.25Z" transform="translate(0.589)" fill="#09a7ff" stroke="#191a1c" stroke-width="1"/>
  </g>
</svg>
