<svg id="icon_eye" data-name="icon eye" xmlns="http://www.w3.org/2000/svg" width="36" height="24.75" viewBox="0 0 36 24.75">
  <path id="Trazado_1" data-name="Trazado 1" d="M36,18S29.25,5.625,18,5.625,0,18,0,18,6.75,30.375,18,30.375,36,18,36,18ZM2.639,18a29.552,29.552,0,0,0,3.735,4.6C9.27,25.5,13.23,28.125,18,28.125S26.728,25.5,29.628,22.6A29.552,29.552,0,0,0,33.363,18a29.549,29.549,0,0,0-3.735-4.6c-2.9-2.9-6.86-5.528-11.628-5.528S9.272,10.5,6.372,13.4A29.549,29.549,0,0,0,2.637,18Z" transform="translate(0 -5.625)" fill="#eef0f3" fill-rule="evenodd"/>
  <path id="Trazado_2" data-name="Trazado 2" d="M18,12.375A5.625,5.625,0,1,0,23.625,18,5.625,5.625,0,0,0,18,12.375ZM10.125,18A7.875,7.875,0,1,1,18,25.875,7.875,7.875,0,0,1,10.125,18Z" transform="translate(0 -5.625)" fill="#eef0f3" fill-rule="evenodd"/>
</svg>
