<svg xmlns="http://www.w3.org/2000/svg" width="32.5" height="50" viewBox="0 0 32.5 50">
  <g id="figma" transform="translate(-8.25 -3)">
    <path id="Trazado_3" data-name="Trazado 3" d="M15.75,3a7.5,7.5,0,0,0,0,15h17.5a7.5,7.5,0,1,0,0-15Z" fill="#aeb3ba"/>
    <path id="Trazado_4" data-name="Trazado 4" d="M26.25,13.5a7.5,7.5,0,1,0,7.5,7.5A7.5,7.5,0,0,0,26.25,13.5Z" transform="translate(7 7)" fill="#aeb3ba"/>
    <path id="Trazado_5" data-name="Trazado 5" d="M8.25,21a7.5,7.5,0,0,1,7.5-7.5h7.5v15h-7.5A7.5,7.5,0,0,1,8.25,21Z" transform="translate(0 7)" fill="#aeb3ba"/>
    <path id="Trazado_6" data-name="Trazado 6" d="M15.75,24a7.5,7.5,0,1,0,7.5,7.5V24Z" transform="translate(0 14)" fill="#aeb3ba"/>
  </g>
</svg>
