<svg xmlns="http://www.w3.org/2000/svg" width="50" height="50" viewBox="0 0 50 50">
  <path id="magic" d="M36.107,17.747l8.95-8.95L41.788,5.529l-8.95,8.95ZM49.76,8.8a1.868,1.868,0,0,1-.549,1.375L9.93,49.451A1.865,1.865,0,0,1,8.555,50a1.865,1.865,0,0,1-1.375-.549L1.134,43.4a2,2,0,0,1,0-2.75L40.414,1.375a2,2,0,0,1,2.75,0l6.048,6.048A1.865,1.865,0,0,1,49.762,8.8ZM8.5,2.993l2.993.916L8.5,4.826,7.579,7.819,6.663,4.826,3.67,3.909l2.993-.916L7.579,0Zm10.69,4.948,5.986,1.833-5.986,1.833-1.833,5.986-1.833-5.986L9.535,9.774l5.986-1.833,1.833-5.986Zm28.406,14.6,2.993.916-2.993.916-.916,2.993-.916-2.993-2.993-.916,2.993-.916.916-2.993ZM28.044,2.993l2.993.916-2.993.916-.916,2.993-.916-2.993-2.993-.916,2.993-.916L27.127,0Z" transform="translate(-0.585)" fill="#191a1c"/>
</svg>
