<svg xmlns="http://www.w3.org/2000/svg" width="25.592" height="25.715" viewBox="0 0 25.592 25.715">
  <path id="whatsapp" d="M18.745,15.41c-.319-.159-1.884-.929-2.175-1.036s-.5-.159-.718.161-.822,1.035-1.007,1.247-.371.239-.69.08a8.746,8.746,0,0,1-2.561-1.581,9.544,9.544,0,0,1-1.771-2.206c-.185-.319-.019-.491.139-.649.144-.143.319-.371.478-.557a2.2,2.2,0,0,0,.319-.533.581.581,0,0,0-.027-.557c-.08-.159-.717-1.727-.981-2.364-.259-.62-.521-.536-.717-.546s-.407-.012-.611-.011a1.167,1.167,0,0,0-.849.4A3.571,3.571,0,0,0,6.46,9.912a6.2,6.2,0,0,0,1.3,3.294A14.2,14.2,0,0,0,13.2,18.013a17.984,17.984,0,0,0,1.815.67,4.342,4.342,0,0,0,2,.126A3.283,3.283,0,0,0,19.168,17.3a2.643,2.643,0,0,0,.185-1.514c-.079-.133-.291-.212-.611-.371m-5.809,7.932h0a10.576,10.576,0,0,1-5.391-1.477l-.386-.229L3.145,22.689,4.214,18.78l-.251-.4a10.591,10.591,0,1,1,8.972,4.963m9.014-19.6A12.745,12.745,0,0,0,1.894,19.112l-1.808,6.6,6.755-1.772a12.731,12.731,0,0,0,6.089,1.551h0A12.748,12.748,0,0,0,21.949,3.736Z" transform="translate(-0.086 0)" fill="#eef0f3"/>
</svg>
