<svg xmlns="http://www.w3.org/2000/svg" width="25.775" height="25.715" viewBox="0 0 25.775 25.715">
  <path id="linkedin" d="M19.256,13.439a2.163,2.163,0,0,0-1.811-.634,2.585,2.585,0,0,0-2.294.966,4.752,4.752,0,0,0-.664,2.716V25.3a.623.623,0,0,1-.664.664H9.235a.685.685,0,0,1-.453-.181.6.6,0,0,1-.212-.483V9a.732.732,0,0,1,.664-.664H13.7a.61.61,0,0,1,.393.121.645.645,0,0,1,.212.362v.3a1.04,1.04,0,0,1,.06.422,6.33,6.33,0,0,1,4.587-1.63,7.221,7.221,0,0,1,5.01,1.63,6.086,6.086,0,0,1,1.811,4.768V25.3a.6.6,0,0,1-.212.483.685.685,0,0,1-.453.181H20.4a.685.685,0,0,1-.453-.181.6.6,0,0,1-.212-.483V15.4a3.234,3.234,0,0,0-.483-1.962ZM5.312,5.592a2.95,2.95,0,0,1-2.2.936,2.952,2.952,0,0,1-2.2-.936A3.1,3.1,0,0,1,0,3.359a3,3,0,0,1,.905-2.2A2.994,2.994,0,0,1,3.109.25a3,3,0,0,1,2.2.905,3.005,3.005,0,0,1,.905,2.2A3.089,3.089,0,0,1,5.312,5.592ZM6.1,9V25.3a.6.6,0,0,1-.212.483.685.685,0,0,1-.453.181H.845a.653.653,0,0,1-.483-.181A.653.653,0,0,1,.181,25.3V9A.685.685,0,0,1,.362,8.55a.6.6,0,0,1,.483-.212H5.433A.732.732,0,0,1,6.1,9Z" transform="translate(0 -0.25)" fill="#eef0f3"/>
</svg>
