<svg xmlns="http://www.w3.org/2000/svg" width="12.591" height="14" viewBox="0 0 12.591 14">
  <path id="github" d="M12.59,5.052a5.886,5.886,0,0,1-.344,2.131,2.943,2.943,0,0,1-1,1.361,4.753,4.753,0,0,1-1.311.689,7.8,7.8,0,0,1-1.541.312,2.068,2.068,0,0,1,.623,1.672v2.951H4.458V12.036a5.274,5.274,0,0,1-.967.1,3.006,3.006,0,0,1-.754-.082,2.558,2.558,0,0,1-.558-.213,1.667,1.667,0,0,1-.393-.279,2.568,2.568,0,0,1-.246-.279.87.87,0,0,1-.131-.229l-.033-.1a3.8,3.8,0,0,0-.443-.787,1.7,1.7,0,0,0-.41-.426l-.164-.1Q0,9.347,0,9.232t.229-.148h.2a1.643,1.643,0,0,1,.754.262,1.444,1.444,0,0,1,.492.459l.164.2a1.844,1.844,0,0,0,2.656.754,1.837,1.837,0,0,1,.59-1.213A7.808,7.808,0,0,1,3.54,9.233a4.523,4.523,0,0,1-1.3-.689,3.1,3.1,0,0,1-1-1.361A5.666,5.666,0,0,1,.885,5.052a3.429,3.429,0,0,1,.951-2.426A3.246,3.246,0,0,1,1.934.2.448.448,0,0,0,2.2.183a1.872,1.872,0,0,1,.82.2,7.236,7.236,0,0,1,1.442.771A9.686,9.686,0,0,1,6.753.823a10.02,10.02,0,0,1,2.295.328A6.13,6.13,0,0,1,10.442.4a3.221,3.221,0,0,1,.869-.229L11.54.2a3.048,3.048,0,0,1,.1,2.426,3.428,3.428,0,0,1,.951,2.426ZM1.049,9.495q.033-.082-.082-.131T.819,9.4q-.033.082.082.131T1.049,9.495Zm.377.41q.082-.066-.033-.18t-.2-.049q-.082.065.033.18T1.426,9.9Zm.344.524q.1-.066,0-.213t-.2-.082q-.1.066,0,.213T1.77,10.429Zm.508.524q.082-.1-.049-.246T2,10.659q-.1.1.049.246T2.278,10.954Zm.672.279q.033-.115-.148-.18t-.213.066q-.033.131.148.18T2.95,11.232Zm.558.18q.2,0,.2-.131t-.2-.131q-.2,0-.2.131T3.508,11.412Zm.721-.066a.372.372,0,0,0,.148-.082q.049-.049.017-.082,0-.164-.2-.131a.372.372,0,0,0-.148.082.091.091,0,0,0-.017.115q0,.131.2.1Z" transform="translate(0.001 -0.167)" fill="#eef0f3"/>
</svg>
