<svg xmlns="http://www.w3.org/2000/svg" width="25.643" height="16.927" viewBox="0 0 25.643 16.927">
  <path id="behance" d="M10.352,13.688s2.427-.189,2.427-3.153-1.985-4.413-4.5-4.413H0V22.7H8.276s5.054.165,5.054-4.894C13.329,17.8,13.55,13.688,10.352,13.688Zm-6.7-4.622H8.276S9.4,9.067,9.4,10.79s-.662,1.976-1.413,1.976H3.647Zm4.4,10.685h-4.4V15.321H8.276S9.954,15.3,9.954,17.6c0,1.939-1.253,2.14-1.912,2.154Zm12.026-9.414c-6.118,0-6.113,6.37-6.113,6.37s-.418,6.336,6.113,6.336c0,0,5.441.326,5.441-4.408h-2.8s.093,1.784-2.549,1.784a2.622,2.622,0,0,1-2.8-2.885H25.6S26.507,10.338,20.068,10.338Zm2.489,4.984H17.333a2.908,2.908,0,0,1,2.8-2.555,2.439,2.439,0,0,1,2.427,2.555Zm.65-8.225H16.645V9.14h6.562V7.1Z" transform="translate(0 -6.122)" fill="#eef0f3"/>
</svg>
