<svg xmlns="http://www.w3.org/2000/svg" width="14.033" height="14" viewBox="0 0 14.033 14">
  <path id="linkedin" d="M10.483,7.431A1.178,1.178,0,0,0,9.5,7.086a1.407,1.407,0,0,0-1.249.526A2.587,2.587,0,0,0,7.887,9.09v4.8a.339.339,0,0,1-.362.362h-2.5a.373.373,0,0,1-.246-.1.329.329,0,0,1-.115-.263V5.015a.4.4,0,0,1,.362-.362H7.46a.332.332,0,0,1,.214.066.351.351,0,0,1,.115.2v.164a.566.566,0,0,1,.033.23,3.446,3.446,0,0,1,2.5-.887,3.931,3.931,0,0,1,2.728.887,3.313,3.313,0,0,1,.986,2.6v5.981a.329.329,0,0,1-.115.263.373.373,0,0,1-.246.1H11.108a.373.373,0,0,1-.246-.1.329.329,0,0,1-.115-.263V8.5a1.761,1.761,0,0,0-.263-1.068ZM2.892,3.158a1.606,1.606,0,0,1-1.2.51,1.607,1.607,0,0,1-1.2-.51A1.686,1.686,0,0,1,0,1.943,1.636,1.636,0,0,1,.493.743,1.63,1.63,0,0,1,1.693.25a1.633,1.633,0,0,1,1.2.493,1.636,1.636,0,0,1,.493,1.2A1.682,1.682,0,0,1,2.892,3.158Zm.427,1.857v8.873a.329.329,0,0,1-.115.263.373.373,0,0,1-.246.1H.46a.356.356,0,0,1-.263-.1.356.356,0,0,1-.1-.263V5.015a.373.373,0,0,1,.1-.246A.329.329,0,0,1,.46,4.653h2.5a.4.4,0,0,1,.362.362Z" transform="translate(0 -0.25)" fill="#eef0f3"/>
</svg>
