<svg xmlns="http://www.w3.org/2000/svg" width="23.126" height="25.715" viewBox="0 0 23.126 25.715">
  <path id="github" d="M23.125,9.14a10.811,10.811,0,0,1-.632,3.915,5.406,5.406,0,0,1-1.837,2.5,8.729,8.729,0,0,1-2.409,1.265,14.326,14.326,0,0,1-2.831.572,3.8,3.8,0,0,1,1.144,3.071v5.42H8.19V21.967a9.687,9.687,0,0,1-1.776.181A5.522,5.522,0,0,1,5.028,22,4.7,4.7,0,0,1,4,21.606a3.062,3.062,0,0,1-.723-.512,4.716,4.716,0,0,1-.451-.512,1.6,1.6,0,0,1-.241-.421l-.06-.181a6.985,6.985,0,0,0-.813-1.445,3.127,3.127,0,0,0-.754-.783l-.3-.181Q0,17.029,0,16.818t.421-.271H.782a3.018,3.018,0,0,1,1.385.482,2.652,2.652,0,0,1,.9.843l.3.361Q5,21.064,8.25,19.619a3.374,3.374,0,0,1,1.084-2.228A14.341,14.341,0,0,1,6.5,16.819a8.307,8.307,0,0,1-2.379-1.265,5.688,5.688,0,0,1-1.836-2.5A10.406,10.406,0,0,1,1.626,9.14,6.3,6.3,0,0,1,3.372,4.683,5.962,5.962,0,0,1,3.553.226.822.822,0,0,0,4.035.2,3.438,3.438,0,0,1,5.54.557,13.29,13.29,0,0,1,8.19,1.974a17.791,17.791,0,0,1,4.215-.6,18.4,18.4,0,0,1,4.215.6A11.259,11.259,0,0,1,19.18.588a5.916,5.916,0,0,1,1.6-.421l.421.06a5.6,5.6,0,0,1,.181,4.457A6.3,6.3,0,0,1,23.125,9.14ZM1.927,17.3q.06-.15-.15-.241t-.271.06q-.061.15.15.241T1.927,17.3Zm.692.753q.15-.121-.06-.331t-.361-.09q-.151.12.06.331T2.619,18.053Zm.632.963q.181-.121,0-.392t-.361-.15q-.181.121,0,.392T3.252,19.016Zm.934.963q.15-.181-.09-.452t-.421-.09q-.181.181.09.452T4.185,19.98Zm1.234.512q.06-.211-.271-.331t-.392.121q-.061.241.271.331T5.42,20.491Zm1.024.331q.361,0,.361-.241t-.361-.241q-.361,0-.361.241T6.444,20.822ZM7.768,20.7a.684.684,0,0,0,.271-.15q.09-.09.03-.15,0-.3-.361-.241a.684.684,0,0,0-.271.15.168.168,0,0,0-.03.211q0,.241.361.181Z" transform="translate(0.001 -0.167)" fill="#eef0f3"/>
</svg>
