<svg xmlns="http://www.w3.org/2000/svg" width="27.673" height="38.297" viewBox="0 0 27.673 38.297">
  <g id="idea" transform="translate(0.503 0.5)">
    <path id="Trazado_36" data-name="Trazado 36" d="M12.375,27H25.7v2.664H12.375Z" transform="translate(-5.702 2.305)" fill="#09a7ff" stroke="#191a1c" stroke-width="1"/>
    <path id="Trazado_37" data-name="Trazado 37" d="M14.625,31.5h7.992v2.664H14.625Z" transform="translate(-5.288 3.133)" fill="#09a7ff" stroke="#191a1c" stroke-width="1"/>
    <path id="Trazado_38" data-name="Trazado 38" d="M20.072,2.25A13.32,13.32,0,0,0,6.752,15.57,12.242,12.242,0,0,0,11.361,25.72c1.332,1.238,2.051,1.945,2.051,3.17h2.664c0-2.451-1.479-3.823-2.917-5.142A9.591,9.591,0,0,1,9.416,15.57a10.656,10.656,0,1,1,21.312,0,9.591,9.591,0,0,1-3.756,8.178c-1.426,1.332-2.9,2.664-2.9,5.142h2.664c0-1.225.706-1.931,2.051-3.184A12.229,12.229,0,0,0,33.393,15.57,13.32,13.32,0,0,0,20.072,2.25Z" transform="translate(-6.739 -2.25)" fill="#09a7ff" stroke="#191a1c" stroke-width="1"/>
  </g>
</svg>
