<svg xmlns="http://www.w3.org/2000/svg" width="50" height="50" viewBox="0 0 50 50">
  <path id="jira" d="M24.107,23.986H0A10.871,10.871,0,0,0,10.9,34.85h4.438v4.285A10.864,10.864,0,0,0,26.2,50V26.079A2.093,2.093,0,0,0,24.1,23.986ZM36.031,11.994H11.95A10.864,10.864,0,0,0,22.813,22.857H27.25v4.287A10.871,10.871,0,0,0,38.114,38.007V14.079a2.085,2.085,0,0,0-2.085-2.085ZM47.944,0H23.865A10.864,10.864,0,0,0,34.729,10.864h4.436v4.285A10.864,10.864,0,0,0,50,26.006V2.093A2.085,2.085,0,0,0,47.944,0Z" fill="#aeb3ba"/>
</svg>
