<svg xmlns="http://www.w3.org/2000/svg" width="50" height="50" viewBox="0 0 50 50">
  <g id="trello" transform="translate(-3 -3)">
    <path id="Trazado_7" data-name="Trazado 7" d="M9,11.5A2.5,2.5,0,0,1,11.5,9H19a2.5,2.5,0,0,1,2.5,2.5v25A2.5,2.5,0,0,1,19,39H11.5A2.5,2.5,0,0,1,9,36.5Z" transform="translate(4 4)" fill="#aeb3ba"/>
    <path id="Trazado_8" data-name="Trazado 8" d="M19.5,11.5A2.5,2.5,0,0,1,22,9h7.5A2.5,2.5,0,0,1,32,11.5v15A2.5,2.5,0,0,1,29.5,29H22a2.5,2.5,0,0,1-2.5-2.5Z" transform="translate(11 4)" fill="#aeb3ba"/>
    <path id="Trazado_9" data-name="Trazado 9" d="M3,8A5,5,0,0,1,8,3H48a5,5,0,0,1,5,5V48a5,5,0,0,1-5,5H8a5,5,0,0,1-5-5ZM8,8H48V48H8Z" transform="translate(0 0)" fill="#aeb3ba" fill-rule="evenodd"/>
  </g>
</svg>
