<svg xmlns="http://www.w3.org/2000/svg" width="50" height="50" viewBox="0 0 50 50">
  <g id="roadmap" transform="translate(-2.25 -2.25)">
    <path id="Trazado_17" data-name="Trazado 17" d="M20.107,39.036H5.821A3.575,3.575,0,0,1,2.25,35.464V28.321A3.575,3.575,0,0,1,5.821,24.75H20.107a3.575,3.575,0,0,1,3.571,3.571v7.143a3.575,3.575,0,0,1-3.571,3.571ZM5.821,28.321v7.143H20.107V28.321Z" transform="translate(0 13.214)" fill="#191a1c"/>
    <path id="Trazado_18" data-name="Trazado 18" d="M43.393,27.786H14.821a3.575,3.575,0,0,1-3.571-3.571V17.071A3.575,3.575,0,0,1,14.821,13.5H43.393a3.575,3.575,0,0,1,3.571,3.571v7.143a3.575,3.575,0,0,1-3.571,3.571ZM14.821,17.071v7.143H43.393V17.071Z" transform="translate(5.286 6.607)" fill="#191a1c"/>
    <path id="Trazado_19" data-name="Trazado 19" d="M27.25,16.536H5.821A3.575,3.575,0,0,1,2.25,12.964V5.821A3.575,3.575,0,0,1,5.821,2.25H27.25a3.575,3.575,0,0,1,3.571,3.571v7.143a3.575,3.575,0,0,1-3.571,3.571ZM5.821,5.821v7.143H27.25V5.821Z" fill="#191a1c"/>
  </g>
</svg>
