<svg xmlns="http://www.w3.org/2000/svg" width="30" height="30" viewBox="0 0 30 30">
  <path id="chat" d="M26.25,24.375V30q-.205-.117-.586-.352a16.223,16.223,0,0,1-1.582-1.289,24.186,24.186,0,0,1-2.4-2.461,12.272,12.272,0,0,1-2.93.352,16.635,16.635,0,0,1-3.941-.439,11.641,11.641,0,0,1-2.944-1.084,9.291,9.291,0,0,1-1.948-1.436,5.739,5.739,0,0,1-1.142-1.465,2.762,2.762,0,0,1-.337-1.2H11.25a16.293,16.293,0,0,0,6.723-1.318,10.821,10.821,0,0,0,4.673-3.9,10.573,10.573,0,0,0,1.728-6.035Q30,12.217,30,17.344a8.538,8.538,0,0,1-3.75,7.032ZM24.375,9.375ZM11.25,18.75A12.272,12.272,0,0,1,8.32,18.4,25.5,25.5,0,0,1,5.976,20.83a12.168,12.168,0,0,1-1.7,1.347l-.528.323V16.875A8.536,8.536,0,0,1,0,9.844,8.743,8.743,0,0,1,1.509,4.907a10.562,10.562,0,0,1,4.1-3.589A12.29,12.29,0,0,1,11.264,0a12.29,12.29,0,0,1,5.654,1.318,10.46,10.46,0,0,1,4.087,3.589A8.788,8.788,0,0,1,22.5,9.844a7.714,7.714,0,0,1-1.523,4.717,9.537,9.537,0,0,1-4.073,3.12A14.488,14.488,0,0,1,11.25,18.75Zm0-16.875a11.066,11.066,0,0,0-4.7,1A8.566,8.566,0,0,0,3.135,5.6a6.254,6.254,0,0,0,0,7.529,8.682,8.682,0,0,0,3.413,2.739,10.954,10.954,0,0,0,4.7,1.011,10.894,10.894,0,0,0,4.7-1.011,8.707,8.707,0,0,0,3.413-2.739,6.254,6.254,0,0,0,0-7.529,8.62,8.62,0,0,0-3.413-2.725A10.993,10.993,0,0,0,11.25,1.875Z" fill="#aeb3ba"/>
</svg>
