<svg xmlns="http://www.w3.org/2000/svg" width="40" height="40" viewBox="0 0 40 40">
  <path id="design" d="M27.045,19.023l2.539,2.539L26.42,24.726a.439.439,0,0,0,0,.7l.664.664a.439.439,0,0,0,.7,0l3.164-3.164,4.882,4.882-3.164,3.164a.4.4,0,0,0,0,.664l.664.7a.439.439,0,0,0,.7,0L37.2,29.178l2.461,2.461a1.169,1.169,0,0,1,.351.86,1.3,1.3,0,0,1-.351.9l-6.25,6.25a1.3,1.3,0,0,1-.9.351,1.169,1.169,0,0,1-.86-.351L19.037,27.031l-7.344,7.344a2.17,2.17,0,0,1-3.047,0L5.677,31.368a2.121,2.121,0,0,1,0-3.007l7.344-7.344L.364,8.36a1.227,1.227,0,0,1,0-1.719L6.615.352A1.3,1.3,0,0,1,7.513,0a1.169,1.169,0,0,1,.86.351l2.461,2.461L7.67,5.977a.439.439,0,0,0,0,.7l.664.664a.439.439,0,0,0,.7,0L12.2,4.18l4.882,4.882-3.164,3.164a.439.439,0,0,0,0,.7l.664.664a.439.439,0,0,0,.7,0l3.164-3.164,2.539,2.578L33.372.624a2.121,2.121,0,0,1,3.007,0l3.007,3.007a2.05,2.05,0,0,1,.625,1.5,2.05,2.05,0,0,1-.625,1.5ZM2.593,31.561a1.065,1.065,0,0,0,.274.508l5.078,5.078a1.065,1.065,0,0,0,.508.274,1.378,1.378,0,0,1-.313.468L1.266,40a2.08,2.08,0,0,1-1.093-.156A2.08,2.08,0,0,1,.017,38.75l2.11-6.874a3.336,3.336,0,0,1,.468-.313Z" transform="translate(-0.013 0.001)" fill="#eef0f3"/>
</svg>
