<svg xmlns="http://www.w3.org/2000/svg" width="39" height="46.979" viewBox="0 0 39 46.979">
  <g id="Pen" transform="translate(-292 -189.481)">
    <text id="W." transform="translate(292 226.461)" fill="#eef0f3" font-size="29" font-family="Nunito-Black, Nunito" font-weight="800"><tspan x="0" y="0">W.</tspan></text>
    <g id="pen-2" data-name="pen" transform="translate(294.341 191.481)" fill="#eef0f3">
      <path d="M 31.67665863037109 33.64583587646484 C 31.14644813537598 33.64583587646484 30.66612434387207 33.44644546508789 30.2873363494873 33.06920623779297 L 28.1536979675293 30.96730613708496 L 28.15102958679199 30.96467590332031 L 28.14837837219238 30.96202659606934 C 27.78185081481934 30.59548759460449 27.58230972290039 30.12818145751953 27.56932640075684 29.60766983032227 L 27.11368942260742 30.06329536437988 L 26.49682807922363 29.8085765838623 L 21.55525970458984 27.76804542541504 L 21.37091827392578 27.69192695617676 L 21.22987937927246 27.55090522766113 C 21.09571838378906 27.4167652130127 20.96567916870117 27.23087692260742 20.80821800231934 26.94816589355469 L 20.17264938354492 25.8070068359375 L 21.42598533630371 25.49477958679199 L 25.49777603149414 21.4229793548584 L 25.79619789123535 20.22505569458008 L 26.91280937194824 20.78494644165039 C 27.30733871459961 20.98276519775391 27.52925872802734 21.15493583679199 27.67877960205078 21.37922668457031 L 27.73342895507813 21.46119689941406 L 27.77102851867676 21.55225563049316 L 29.81155967712402 26.49383544921875 L 30.0662784576416 27.11069679260254 L 29.61154937744141 27.56543350219727 C 30.13208961486816 27.57843589782715 30.59939956665039 27.77797698974609 30.96591949462891 28.14448547363281 L 30.96856880187988 28.14713668823242 L 30.97118949890137 28.14980697631836 L 33.07217407226563 30.28250312805176 C 33.45001983642578 30.66144180297852 33.64971923828125 31.14211273193359 33.64971923828125 31.67276573181152 C 33.64971923828125 32.20444488525391 33.44924926757813 32.68593597412109 33.06999969482422 33.0651969909668 C 32.6898193359375 33.44536590576172 32.20832824707031 33.64583587646484 31.67665863037109 33.64583587646484 Z M 20.27853965759277 25.45283508300781 C 19.53997802734375 25.45283508300781 18.87342834472656 25.19386672973633 18.35093879699707 24.70392608642578 L 18.33886909484863 24.69260597229004 L 18.32717895507813 24.6808967590332 L 1.844968795776367 8.166906356811523 C 1.382088780403137 7.704016208648682 1.111048817634583 7.116236209869385 1.061838746070862 6.467775821685791 C 1.035578489303589 6.121865749359131 1.069344639778137 5.789993762969971 1.16245448589325 5.474719524383545 L -0.4172711968421936 3.894985914230347 C -0.7965312004089355 3.515716075897217 -0.9970012307167053 3.023236036300659 -0.9970012307167053 2.470786094665527 C -0.9970012307167053 1.91835606098175 -0.7965412139892578 1.425876021385193 -0.4172911942005157 1.046606063842773 L 1.049588799476624 -0.4202739596366882 C 1.428858757019043 -0.7995339632034302 1.921338796615601 -1.000003933906555 2.473788738250732 -1.000003933906555 C 3.026248693466187 -1.000003933906555 3.518728733062744 -0.7995339632034302 3.897998809814453 -0.4202739596366882 L 5.478114128112793 1.159841179847717 C 5.725137710571289 1.087024807929993 5.98264741897583 1.050366044044495 6.24902868270874 1.050366044044495 C 6.322118759155273 1.050366044044495 6.39673900604248 1.053215980529785 6.470798969268799 1.058835983276367 C 7.117646217346191 1.107942819595337 7.704092979431152 1.377747893333435 8.167102813720703 1.839166641235352 L 9.46574592590332 3.111926078796387 L 13.98683929443359 3.111926078796387 C 14.08780670166016 3.098386287689209 14.18790721893311 3.091546058654785 14.28553867340088 3.091546058654785 C 14.81415843963623 3.091546058654785 15.29009914398193 3.288075923919678 15.66191864013672 3.659886121749878 L 23.8880786895752 11.91874599456787 C 24.26593971252441 12.29657649993896 24.46640968322754 12.778076171875 24.46640968322754 13.30976581573486 C 24.46640968322754 13.84145641326904 24.26593971252441 14.32295608520508 23.88665962219238 14.70221614837646 C 23.50743865966797 15.08145618438721 23.02593803405762 15.28192615509033 22.49425888061523 15.28192615509033 C 21.96257972717285 15.28192615509033 21.48108863830566 15.08145618438721 21.1018180847168 14.70219612121582 L 13.45796966552734 7.088925838470459 L 13.42013072967529 7.088925838470459 L 24.6836986541748 18.32491683959961 C 25.20990943908691 18.85113525390625 25.48758888244629 19.52001571655273 25.48758888244629 20.26010513305664 C 25.48758888244629 20.99903106689453 25.21078491210938 21.66696548461914 24.68707466125488 22.19193649291992 L 22.23373794555664 24.67701530456543 L 22.22018814086914 24.69073677062988 L 22.20612907409668 24.70392608642578 C 21.68363952636719 25.19386672973633 21.01709938049316 25.45283508300781 20.27853965759277 25.45283508300781 Z" stroke="none"/>
      <path d="M 31.67665863037109 32.64583587646484 C 31.94230842590332 32.64583587646484 32.17075729370117 32.55021667480469 32.36198043823242 32.3589973449707 L 32.36288833618164 32.35808563232422 C 32.55410766601563 32.16686630249023 32.64971923828125 31.93842697143555 32.64971923828125 31.67276573181152 C 32.64971923828125 31.40710639953613 32.55410766601563 31.17866516113281 32.36288833618164 30.98743629455566 L 30.25880813598633 28.85159683227539 C 30.06758880615234 28.66037559509277 29.83369827270508 28.56476593017578 29.55714797973633 28.56475639343262 C 29.28059959411621 28.56475639343262 29.04670906066895 28.66036605834961 28.85548973083496 28.85159683227539 C 28.66426849365234 29.04282569885254 28.56864929199219 29.2767162322998 28.56864929199219 29.55325508117676 C 28.56864929199219 29.82980537414551 28.66426849365234 30.06369590759277 28.85548973083496 30.25491523742676 L 30.9913387298584 32.3589973449707 C 31.18255805969238 32.55021667480469 31.4109992980957 32.64583587646484 31.67665863037109 32.64583587646484 M 26.87849807739258 28.88427543640137 L 28.88725852966309 26.8755054473877 L 26.84672927856445 21.93392562866211 C 26.80436897277832 21.87038612365723 26.67698860168457 21.78536605834961 26.4645881652832 21.67886543273926 C 26.42222785949707 21.84890556335449 26.34778785705566 21.98718643188477 26.24128913879395 22.09368515014648 L 22.0966796875 26.23829650878906 C 21.99017906188965 26.34480667114258 21.85189819335938 26.41923522949219 21.68185806274414 26.46159553527832 C 21.78835868835449 26.65281677246094 21.87337875366211 26.78020668029785 21.93692970275879 26.84374618530273 L 26.87849807739258 28.88427543640137 M 20.27853965759277 24.45283508300781 C 20.76748847961426 24.45283508300781 21.18200874328613 24.29337692260742 21.52209854125977 23.97446632385254 L 23.97745895385742 21.48733520507813 C 24.31753921508789 21.14724540710449 24.48758888244629 20.73816680908203 24.48758888244629 20.26010513305664 C 24.48758888244629 19.78204536437988 24.31753921508789 19.37297630310059 23.97745895385742 19.03288650512695 L 11.00172901153564 6.088925838470459 L 13.87100887298584 6.088925838470459 L 21.80892944335938 13.99508571624756 C 22.00015830993652 14.18631649017334 22.22859954833984 14.28192615509033 22.49425888061523 14.28192615509033 C 22.75990867614746 14.28192615509033 22.98834800720215 14.18631649017334 23.17956924438477 13.99508571624756 C 23.37079811096191 13.80386638641357 23.46640968322754 13.57542610168457 23.46640968322754 13.30976581573486 C 23.46640968322754 13.04410648345947 23.37079811096191 12.81566619873047 23.17956924438477 12.62444591522217 L 14.95480918884277 4.366995811462402 C 14.77116966247559 4.183356761932373 14.54810047149658 4.091545104980469 14.28553485870361 4.091545104980469 C 14.21412944793701 4.091545104980469 14.1397705078125 4.09834098815918 14.06252861022949 4.111926078796387 L 9.057418823242188 4.111926078796387 L 7.463478565216064 2.549756050109863 C 7.165748596191406 2.252026081085205 6.809618949890137 2.087435960769653 6.395098686218262 2.055966138839722 C 6.345864295959473 2.052228212356567 6.297211170196533 2.050361394882202 6.249026775360107 2.050361394882202 C 5.891532421112061 2.050361394882202 5.56288480758667 2.153299331665039 5.26318883895874 2.35913610458374 L 3.19088888168335 0.2868360280990601 C 2.999658823013306 0.09560602903366089 2.760628700256348 -3.969116278312868e-06 2.473788738250732 -3.969116278312868e-06 C 2.186958789825439 -3.969116278312868e-06 1.947928786277771 0.09560602903366089 1.756698846817017 0.2868360280990601 L 0.2898387908935547 1.753696084022522 C 0.09861879795789719 1.944926023483276 0.002998795127496123 2.183956146240234 0.002998795127496123 2.470786094665527 C 0.002998795127496123 2.757626056671143 0.09861879795789719 2.996655941009521 0.2898387908935547 3.187875986099243 L 2.362138748168945 5.260186195373535 C 2.128558874130249 5.600275993347168 2.027498722076416 5.97757625579834 2.058968782424927 6.392096042633057 C 2.090428829193115 6.806625843048096 2.25502872467041 7.162745952606201 2.552758693695068 7.460475921630859 L 19.03496932983398 23.97446632385254 C 19.37505912780762 24.29337692260742 19.78957939147949 24.45283508300781 20.27853965759277 24.45283508300781 M 31.67665863037109 34.64583587646484 C 30.88919639587402 34.64583587646484 30.14683532714844 34.33881759643555 29.58505249023438 33.78110122680664 L 27.45190811157227 31.67968559265137 L 27.44656944274902 31.67442512512207 L 27.4412784576416 31.66912651062012 C 27.26669692993164 31.49454689025879 27.1164608001709 31.30182456970215 26.99225234985352 31.09505081176758 L 26.11515808105469 30.73287582397461 L 21.1735897064209 28.69234657287598 L 20.80489921569824 28.54009628295898 L 20.52282905578613 28.25806617736816 C 20.31767845153809 28.05295562744141 20.14175796508789 27.80672645568848 19.93457794189453 27.43474578857422 L 19.32413864135742 26.33870124816895 C 18.70528221130371 26.18548202514648 18.14307594299316 25.8798885345459 17.66691970825195 25.43337631225586 L 17.64276885986328 25.41073608398438 L 17.61939811706543 25.38731575012207 L 1.137188792228699 8.873326301574707 C 0.5035887956619263 8.23973560333252 0.1322587877511978 7.433606147766113 0.06470879167318344 6.543446063995361 C 0.04579176008701324 6.294307231903076 0.05087315291166306 6.047668933868408 0.07935703545808792 5.805830001831055 L -1.124381184577942 4.602086067199707 C -1.687101244926453 4.039366245269775 -1.997001171112061 3.282455921173096 -1.997001171112061 2.470786094665527 C -1.997001171112061 1.659146070480347 -1.687111258506775 0.9022460579872131 -1.124411225318909 0.3395160436630249 L 0.3424887955188751 -1.127373933792114 C 0.9052087664604187 -1.690104007720947 1.662118792533875 -2.000004053115845 2.473788738250732 -2.000004053115845 C 3.285468816757202 -2.000004053115845 4.042378902435303 -1.690104007720947 4.605098724365234 -1.127373933792114 L 5.808795928955078 0.07632297277450562 C 5.954213619232178 0.05907975509762764 6.101154327392578 0.05036602914333344 6.24902868270874 0.05036602914333344 C 6.347378730773926 0.05036602914333344 6.447498798370361 0.05418603122234344 6.5465989112854 0.06171603128314018 C 7.432248592376709 0.1289519816637039 8.234774589538574 0.4969414472579956 8.868247985839844 1.126137971878052 L 9.874083518981934 2.111926078796387 L 13.92605781555176 2.111926078796387 C 14.04685401916504 2.098379373550415 14.16712379455566 2.091546058654785 14.28553867340088 2.091546058654785 C 15.0737190246582 2.091546058654785 15.81364917755127 2.397406101226807 16.3690185546875 2.952785968780518 L 24.59658813476563 11.21303558349609 C 25.1564884185791 11.77291584014893 25.46640968322754 12.51855564117432 25.46640968322754 13.30976581573486 C 25.46640968322754 14.10097599029541 25.1564884185791 14.8466157913208 24.59374809265137 15.40933609008789 C 24.34855079650879 15.65454292297363 24.06858253479004 15.85175704956055 23.76525497436523 15.99623107910156 L 25.38993835449219 17.61693572998047 C 25.89966201782227 18.12667274475098 26.23850250244141 18.7343921661377 26.39244842529297 19.40536499023438 L 27.36103820800781 19.89102554321289 C 27.75282859802246 20.08747673034668 28.1958179473877 20.35200691223145 28.51082801818848 20.82452583312988 L 28.62011909484863 20.98846626281738 L 28.6953296661377 21.17058563232422 L 30.73585891723633 26.1121654510498 L 31.09724807739258 26.98734664916992 C 31.30466079711914 27.11174964904785 31.49796867370605 27.26233291625977 31.67301940917969 27.43738555908203 L 31.67831802368164 27.44267654418945 L 31.68357849121094 27.4480152130127 L 33.78369522094727 29.57983016967773 C 34.34221649169922 30.14177322387695 34.64971923828125 30.88468742370605 34.64971923828125 31.67276573181152 C 34.64971923828125 32.46395492553711 34.33981704711914 33.20958709716797 33.777099609375 33.77229690551758 C 33.21347045898438 34.3359375 32.46783828735352 34.64583587646484 31.67665863037109 34.64583587646484 Z" stroke="none" fill="#191a1c"/>
    </g>
  </g>
</svg>
