<svg xmlns="http://www.w3.org/2000/svg" width="50.261" height="50" viewBox="0 0 50.261 50">
  <path id="visualstudiocode" d="M48.481,5.382,38.136.4a3.129,3.129,0,0,0-3.571.607L14.753,19.083,6.125,12.533a2.091,2.091,0,0,0-2.672.12L.686,15.17a2.094,2.094,0,0,0,0,3.1l7.482,6.827L.683,31.921a2.094,2.094,0,0,0,0,3.1l2.77,2.514a2.091,2.091,0,0,0,2.672.12L14.756,31.1,34.567,49.175a3.125,3.125,0,0,0,3.569.607l10.35-4.977a3.141,3.141,0,0,0,1.776-2.833V8.213a3.141,3.141,0,0,0-1.78-2.831ZM37.7,36.5,22.672,25.094,37.7,13.684V36.5Z" transform="translate(0 -0.093)" fill="#aeb3ba"/>
</svg>
