<svg xmlns="http://www.w3.org/2000/svg" width="30.145" height="30" viewBox="0 0 30.145 30">
  <g id="design-line" transform="translate(-2 -0.994)">
    <path id="Trazado_14" data-name="Trazado 14" d="M9,17.41v8.717h8.717L15.9,24.309H10.818V19.228Z" transform="translate(-0.637 -1.495)" fill="#aeb3ba"/>
    <path id="Trazado_15" data-name="Trazado 15" d="M31.877,29.44l-2.609-2.645v2.381H3.818V25.4H5.636V23.95H3.818V17.906H5.636V16.451H3.818V10.634H5.636V9.18H3.818V4.1L18.306,18.505V15.942L3.554,1.263A.909.909,0,0,0,2,1.908V30.085a.909.909,0,0,0,.909.909H31.231a.909.909,0,0,0,.645-1.554Z" transform="translate(0)" fill="#aeb3ba"/>
    <path id="Trazado_16" data-name="Trazado 16" d="M23.818,27.584h3.636a1.818,1.818,0,0,0,1.818-1.818V8.224L27.181,4.379a1.827,1.827,0,0,0-3.2.073L22,8.242V25.766A1.818,1.818,0,0,0,23.818,27.584Zm0-18.906,1.763-3.427,1.872,3.436V22.13H23.818Zm0,14.934h3.636V25.83H23.818Z" transform="translate(-1.821 -0.225)" fill="#aeb3ba"/>
  </g>
</svg>
